# xmcd CD database file
#
# Track frame offsets:
#	150
#	15418
#	29839
#	44111
#	58383
#	73392
#	86236
#	102946
#	117367
#	133136
#	147498
#	164253
#
# Disc length: 2377 seconds
#
# Revision: 2
# Processed by: cddbd v1.5.2PL0 Copyright (c) Steve Scherf et al.
# Submitted via: CDex 1.51
#
DISCID=c109470c
DTITLE=Vitor e Leo - Borboletas
DYEAR=2008
DGENRE=Country
TTITLE0=Borboletas
TTITLE1=Lado errado
TTITLE2=Timidez
TTITLE3=Tanta solidao
TTITLE4=Nada normal
TTITLE5=Sem transito, sem aviao
TTITLE6=Luz, paixao e rodeio
TTITLE7=Noite estelar
TTITLE8=Razao do meu astral
TTITLE9=Voce sabia
TTITLE10=Deus e eu no sertao
TTITLE11=Tem que ser voce
EXTD=YEAR: 2008
EXTT0=
EXTT1=
EXTT2=
EXTT3=
EXTT4=
EXTT5=
EXTT6=
EXTT7=
EXTT8=
EXTT9=
EXTT10=
EXTT11=
PLAYORDER=
